<?xml version="1.0" encoding="UTF-8" standalone="no"?>
<svg
   width="689"
   height="206"
   viewBox="0 0 689 206"
   fill="none"
   version="1.1"
   id="svg10"
   sodipodi:docname="arkade-white.svg"
   inkscape:version="1.4.2 (ebf0e940d0, 2025-05-08)"
   xmlns:inkscape="http://www.inkscape.org/namespaces/inkscape"
   xmlns:sodipodi="http://sodipodi.sourceforge.net/DTD/sodipodi-0.dtd"
   xmlns="http://www.w3.org/2000/svg"
   xmlns:svg="http://www.w3.org/2000/svg">
  <defs
     id="defs10" />
  <sodipodi:namedview
     id="namedview10"
     pagecolor="#ffffff"
     bordercolor="#000000"
     borderopacity="0.25"
     inkscape:showpageshadow="2"
     inkscape:pageopacity="0.0"
     inkscape:pagecheckerboard="0"
     inkscape:deskcolor="#d1d1d1"
     inkscape:zoom="1.3815275"
     inkscape:cx="325.72642"
     inkscape:cy="162.13937"
     inkscape:window-width="1920"
     inkscape:window-height="1143"
     inkscape:window-x="0"
     inkscape:window-y="0"
     inkscape:window-maximized="1"
     inkscape:current-layer="svg10" />
  <path
     d="M 10.440629,68.674101 41.156463,37.959094 h 61.430017 l 30.71418,30.715007 V 99.38844 H 102.58648 V 68.674101 H 41.156463 V 99.38844 H 10.440629 Z"
     fill="#ffffff"
     id="path1"
     style="stroke-width:1.65201" />
  <path
     d="M 41.156463,130.10427 V 99.38844 h 61.430017 v 30.71583 z"
     fill="#ffffff"
     id="path2"
     style="stroke-width:1.65201" />
  <path
     d="M 41.156463,130.10427 H 10.440629 v 30.71418 h 30.715834 z"
     fill="#ffffff"
     id="path3"
     style="stroke-width:1.65201" />
  <path
     d="m 102.58648,130.10427 v 30.71418 h 30.71418 v -30.71418 z"
     fill="#ffffff"
     id="path4"
     style="stroke-width:1.65201" />
  <path
     d="m 641.21627,151.43833 c -5.60692,0 -10.87518,-1.01433 -15.80479,-3.04465 -4.83378,-2.03033 -9.0398,-4.78587 -12.6164,-8.26502 -3.57661,-3.57825 -6.38007,-7.73471 -8.41038,-12.47102 -2.03032,-4.83379 -3.04466,-9.95831 -3.04466,-15.37195 0,-5.41364 1.01434,-10.48862 3.04466,-15.22493 2.03031,-4.83379 4.83377,-8.990732 8.41038,-12.471016 3.5766,-3.576772 7.78262,-6.380403 12.6164,-8.410394 4.92961,-2.030155 10.19787,-3.045316 15.80479,-3.045316 5.8002,0 11.07012,1.015161 15.80644,3.045316 4.83379,2.029991 8.99024,4.833622 12.47103,8.410394 3.47913,3.576927 6.13887,7.733876 7.9759,12.471016 1.93285,4.73631 2.89928,9.81129 2.89928,15.22493 v 4.3514 h -58.00375 c 0.38658,2.31941 1.11181,4.54302 2.1757,6.67081 1.15972,2.12613 2.56227,4.01108 4.20437,5.65482 1.74123,1.54629 3.67408,2.80347 5.80187,3.76989 2.12613,0.87062 4.34974,1.3051 6.66916,1.3051 3.2875,0 5.94558,-0.43448 7.9759,-1.3051 2.12614,-0.96642 3.86736,-1.9824 5.22036,-3.04464 1.45046,-1.25719 2.61018,-2.70765 3.48078,-4.3514 h 21.75038 c -1.54628,4.83379 -3.96318,9.18518 -7.25068,13.05088 -1.44881,1.64375 -3.14046,3.2396 -5.07497,4.78587 -1.93285,1.54629 -4.15647,2.94884 -6.67083,4.20602 -2.5127,1.25553 -5.41363,2.22196 -8.69947,2.89928 -3.19004,0.77314 -6.76829,1.15971 -10.73147,1.15971 z m 17.40228,-47.12689 c -0.38822,-1.83705 -1.06389,-3.5766 -2.03032,-5.22036 -0.96807,-1.64376 -2.2236,-3.09422 -3.77154,-4.35073 -1.44882,-1.25669 -3.19004,-2.27185 -5.22035,-3.045156 -1.93286,-0.7733 -4.05899,-1.16004 -6.38007,-1.16004 -4.73632,0 -8.69948,1.40174 -11.88951,4.205196 -3.09422,2.70697 -5.17246,5.897 -6.23634,9.57109 z"
     fill="#ffffff"
     id="path5"
     style="stroke-width:1.65201" />
  <path
     d="m 546.9608,151.43833 c -4.73631,0 -9.18351,-0.91852 -13.33998,-2.7539 -4.06064,-1.83703 -7.63724,-4.44721 -10.73145,-7.83052 -3.09257,-3.38498 -5.55903,-7.49353 -7.39442,-12.32732 -1.7412,-4.83212 -2.61017,-10.24576 -2.61017,-16.2409 0,-5.99349 0.86897,-11.40714 2.61017,-16.24092 1.83539,-4.832956 4.30185,-8.941498 7.39442,-12.324983 3.09421,-3.383652 6.67081,-5.993825 10.73145,-7.830529 4.15647,-1.836706 8.60367,-2.755224 13.33998,-2.755224 4.06065,0 7.49187,0.628425 10.29533,1.885109 2.90094,1.160207 5.31783,2.465131 7.25068,3.915265 2.22361,1.740059 4.10855,3.673576 5.65483,5.800369 h 0.72524 V 47.757499 h 20.30156 V 149.26429 h -20.30156 v -9.42637 h -0.72524 c -1.54628,2.12779 -3.43122,4.06064 -5.65483,5.80021 -1.93285,1.45046 -4.34974,2.75555 -7.25068,3.91525 -2.80346,1.25718 -6.23468,1.88495 -10.29533,1.88495 z m 5.07497,-17.40062 c 5.51112,0 10.00624,-1.88495 13.48703,-5.65484 3.57659,-3.76987 5.36408,-9.13561 5.36408,-16.09718 0,-6.95993 -1.78749,-12.32564 -5.36408,-16.09554 -3.48079,-3.76989 -7.97591,-5.654996 -13.48703,-5.654996 -5.12287,0 -9.42471,1.885106 -12.90549,5.654996 -3.47914,3.7699 -5.22036,9.13561 -5.22036,16.09554 0,6.96157 1.74122,12.32731 5.22036,16.09718 3.48078,3.76989 7.78262,5.65484 12.90549,5.65484 z"
     fill="#ffffff"
     id="path6"
     style="stroke-width:1.65201" />
  <path
     d="m 457.78032,151.43833 c -4.73631,0 -9.18353,-0.91852 -13.33999,-2.7539 -4.06064,-1.83703 -7.63725,-4.44721 -10.73146,-7.83052 -3.09256,-3.38498 -5.55901,-7.49353 -7.39439,-12.32732 -1.74123,-4.83212 -2.61019,-10.24576 -2.61019,-16.2409 0,-5.99349 0.86896,-11.40714 2.61019,-16.24092 1.83538,-4.832956 4.30183,-8.941498 7.39439,-12.324983 3.09421,-3.383652 6.67082,-5.993825 10.73146,-7.830529 4.15646,-1.836706 8.60368,-2.755224 13.33999,-2.755224 4.06064,0 7.49187,0.628425 10.29533,1.885109 2.90093,1.160207 5.31782,2.465131 7.25068,3.915265 2.22359,1.740059 4.10855,3.673576 5.65648,5.800369 h 0.72358 v -9.425541 h 20.30155 v 73.955054 h -20.30155 v -9.42637 h -0.72358 c -1.54793,2.12779 -3.43289,4.06064 -5.65648,5.80021 -1.93286,1.45046 -4.34975,2.75555 -7.25068,3.91525 -2.80346,1.25718 -6.23469,1.88495 -10.29533,1.88495 z m 5.07497,-17.40062 c 5.51112,0 10.00623,-1.88495 13.48702,-5.65484 3.5766,-3.76987 5.36408,-9.13561 5.36408,-16.09718 0,-6.95993 -1.78748,-12.32564 -5.36408,-16.09554 -3.48079,-3.76989 -7.9759,-5.654996 -13.48702,-5.654996 -5.12289,0 -9.42472,1.885106 -12.9055,5.654996 -3.47914,3.7699 -5.22035,9.13561 -5.22035,16.09554 0,6.96157 1.74121,12.32731 5.22035,16.09718 3.48078,3.76989 7.78261,5.65484 12.9055,5.65484 z"
     fill="#ffffff"
     id="path7"
     style="stroke-width:1.65201" />
  <path
     d="m 352.73392,47.757499 h 20.30157 v 55.103471 h 8.70113 l 19.57632,-27.551734 h 22.47561 l -23.92606,34.077184 26.10175,39.87787 H 402.76176 L 383.91067,120.2616 h -10.87518 v 29.00269 h -20.30157 z"
     fill="#ffffff"
     id="path8"
     style="stroke-width:1.65201" />
  <path
     d="m 295.41577,75.309236 h 20.30155 v 10.875679 h 0.72523 c 0.87062,-2.32025 2.1757,-4.350236 3.91528,-6.090463 1.45046,-1.54678 3.38331,-2.94851 5.8002,-4.205194 2.41689,-1.353493 5.46155,-2.030157 9.13561,-2.030157 h 8.70115 V 93.43525 h -10.87685 c -5.50944,0 -9.81128,1.49854 -12.90549,4.49612 -2.99676,2.99674 -4.49513,7.05573 -4.49513,12.18027 v 39.15265 h -20.30155 z"
     fill="#ffffff"
     id="path9"
     style="stroke-width:1.65201" />
  <path
     d="m 215.61538,47.757499 h 45.67811 l 26.827,101.506791 h -22.47561 l -5.80186,-22.47726 h -42.77717 l -5.80021,22.47726 h -22.47559 z m 39.15267,58.727971 -10.14996,-38.426743 h -12.32565 l -10.15161,38.426743 z"
     fill="#ffffff"
     id="path10"
     style="stroke-width:1.65201" />
</svg>
